{
 "cells": [
  {
   "cell_type": "code",
   "execution_count": 16,
   "metadata": {},
   "outputs": [],
   "source": [
    "import pyaudio\n",
    "import wave\n",
    "import os\n",
    "import subprocess\n",
    "\n",
    "# Install lame mp3 encoder using pip\n",
    "# subprocess.run([\"pip\", \"install\", \"pydub\"])\n",
    "\n",
    "# Function to record audio\n",
    "def record_audio(filename, duration):\n",
    "    # Set the parameters for the audio stream\n",
    "    chunk = 1024\n",
    "    sample_format = pyaudio.paInt16\n",
    "    channels = 1\n",
    "    fs = 44100\n",
    "    \n",
    "    # Initialize the PyAudio object\n",
    "    p = pyaudio.PyAudio()\n",
    "    \n",
    "    # Open the audio stream\n",
    "    stream = p.open(format=sample_format,\n",
    "                    channels=channels,\n",
    "                    rate=fs,\n",
    "                    frames_per_buffer=chunk,\n",
    "                    input=True)\n",
    "    \n",
    "    frames = []\n",
    "    \n",
    "    # Record the audio for the specified duration\n",
    "    for i in range(int(fs / chunk * duration)):\n",
    "        data = stream.read(chunk)\n",
    "        frames.append(data)\n",
    "    \n",
    "    # Stop and close the audio stream\n",
    "    stream.stop_stream()\n",
    "    stream.close()\n",
    "    \n",
    "    # Terminate the PyAudio object\n",
    "    p.terminate()\n",
    "    \n",
    "    # Save the recorded audio as a WAV file\n",
    "    wf = wave.open(filename, 'wb')\n",
    "    wf.setnchannels(channels)\n",
    "    wf.setsampwidth(p.get_sample_size(sample_format))\n",
    "    wf.setframerate(fs)\n",
    "    wf.writeframes(b''.join(frames))\n",
    "    wf.close()\n",
    "\n",
    "    # Convert the WAV file to MP3\n",
    "    os.system(f\"ffmpeg -i {filename} -acodec libmp3lame -aq 4 {filename[:-4]}.mp3\")\n",
    "    \n",
    "# Example usage: Record 5 seconds of audio and save it as \"recording.mp3\"\n",
    "record_audio(\"recording.wav\", 5)"
   ]
  },
  {
   "cell_type": "code",
   "execution_count": 17,
   "metadata": {},
   "outputs": [],
   "source": [
    "# def convert_wav_to_mp3(wav_file, mp3_file):\n",
    "#     # Check if the output file already exists and overwrite it\n",
    "#     if os.path.exists(mp3_file):\n",
    "#         os.remove(mp3_file)\n",
    "#     # Convert the WAV file to MP3\n",
    "#     os.system(f\"ffmpeg -i {wav_file} -acodec libmp3lame -aq 4 {mp3_file}\")"
   ]
  },
  {
   "cell_type": "code",
   "execution_count": 18,
   "metadata": {},
   "outputs": [
    {
     "name": "stderr",
     "output_type": "stream",
     "text": [
      "ffmpeg version 3.4.11-0ubuntu0.1 Copyright (c) 2000-2022 the FFmpeg developers\n",
      "  built with gcc 7 (Ubuntu 7.5.0-3ubuntu1~18.04)\n",
      "  configuration: --prefix=/usr --extra-version=0ubuntu0.1 --toolchain=hardened --libdir=/usr/lib/x86_64-linux-gnu --incdir=/usr/include/x86_64-linux-gnu --enable-gpl --disable-stripping --enable-avresample --enable-avisynth --enable-gnutls --enable-ladspa --enable-libass --enable-libbluray --enable-libbs2b --enable-libcaca --enable-libcdio --enable-libflite --enable-libfontconfig --enable-libfreetype --enable-libfribidi --enable-libgme --enable-libgsm --enable-libmp3lame --enable-libmysofa --enable-libopenjpeg --enable-libopenmpt --enable-libopus --enable-libpulse --enable-librubberband --enable-librsvg --enable-libshine --enable-libsnappy --enable-libsoxr --enable-libspeex --enable-libssh --enable-libtheora --enable-libtwolame --enable-libvorbis --enable-libvpx --enable-libwavpack --enable-libwebp --enable-libx265 --enable-libxml2 --enable-libxvid --enable-libzmq --enable-libzvbi --enable-omx --enable-openal --enable-opengl --enable-sdl2 --enable-libdc1394 --enable-libdrm --enable-libiec61883 --enable-chromaprint --enable-frei0r --enable-libopencv --enable-libx264 --enable-shared\n",
      "  libavutil      55. 78.100 / 55. 78.100\n",
      "  libavcodec     57.107.100 / 57.107.100\n",
      "  libavformat    57. 83.100 / 57. 83.100\n",
      "  libavdevice    57. 10.100 / 57. 10.100\n",
      "  libavfilter     6.107.100 /  6.107.100\n",
      "  libavresample   3.  7.  0 /  3.  7.  0\n",
      "  libswscale      4.  8.100 /  4.  8.100\n",
      "  libswresample   2.  9.100 /  2.  9.100\n",
      "  libpostproc    54.  7.100 / 54.  7.100\n",
      "Guessed Channel Layout for Input Stream #0.0 : mono\n",
      "Input #0, wav, from 'recording.wav':\n",
      "  Duration: 00:00:04.99, bitrate: 705 kb/s\n",
      "    Stream #0:0: Audio: pcm_s16le ([1][0][0][0] / 0x0001), 44100 Hz, mono, s16, 705 kb/s\n",
      "Stream mapping:\n",
      "  Stream #0:0 -> #0:0 (pcm_s16le (native) -> mp3 (libmp3lame))\n",
      "Press [q] to stop, [?] for help\n",
      "Output #0, mp3, to 'output.mp3':\n",
      "  Metadata:\n",
      "    TSSE            : Lavf57.83.100\n",
      "    Stream #0:0: Audio: mp3 (libmp3lame), 44100 Hz, mono, s16p\n",
      "    Metadata:\n",
      "      encoder         : Lavc57.107.100 libmp3lame\n",
      "size=      49kB time=00:00:05.01 bitrate=  79.8kbits/s speed= 196x    \n",
      "video:0kB audio:49kB subtitle:0kB other streams:0kB global headers:0kB muxing overhead: 0.455549%\n"
     ]
    }
   ],
   "source": [
    "# convert_wav_to_mp3(\"recording.wav\", \"output.mp3\")"
   ]
  }
 ],
 "metadata": {
  "kernelspec": {
   "display_name": "pepperenv",
   "language": "python",
   "name": "python3"
  },
  "language_info": {
   "codemirror_mode": {
    "name": "ipython",
    "version": 3
   },
   "file_extension": ".py",
   "mimetype": "text/x-python",
   "name": "python",
   "nbconvert_exporter": "python",
   "pygments_lexer": "ipython3",
   "version": "3.10.9"
  },
  "orig_nbformat": 4
 },
 "nbformat": 4,
 "nbformat_minor": 2
}
